<svg xmlns="http://www.w3.org/2000/svg" width="188" height="68" viewBox="0 0 188 68">
  <g id="Group_46818" data-name="Group 46818" transform="translate(0.354 -0.06)">
    <g id="Rectangle_20229" data-name="Rectangle 20229" transform="translate(-0.354 0.06)" fill="#fff" stroke="#ddd" stroke-width="1">
      <rect width="188" height="68" rx="8" stroke="none"/>
      <rect x="0.5" y="0.5" width="187" height="67" rx="7.5" fill="none"/>
    </g>
    <g id="Group_49468" data-name="Group 49468">
      <path id="Path_116866" data-name="Path 116866" d="M46.811,66.148a19.6,19.6,0,1,1,19.58-19.6A19.59,19.59,0,0,1,46.811,66.148ZM38.444,52.01a3.229,3.229,0,0,0-.75.09l-.294.08-1.163,1.993a1.612,1.612,0,0,0,2.673,1.8l.121-.182L40.578,53.1a2.713,2.713,0,0,0-2.154-1.09ZM49.182,40a3.811,3.811,0,0,0-1.149,2.156,4.708,4.708,0,0,0,.587,3.311l5.952,10.322a1.609,1.609,0,0,0,2.88-1.415l-.1-.2L55.79,51.452h2.33a1.613,1.613,0,0,0,.2-3.213l-.2-.012H53.93l-4.3-7.448L49.186,40Zm-13.61,8.212a1.6,1.6,0,0,0-1.6,1.609,1.615,1.615,0,0,0,1.408,1.6l.2.01H50.226a2.276,2.276,0,0,0-.033-2.091,2.025,2.025,0,0,0-1.553-1.119l-.237-.012H43.408l6.908-11.974a1.613,1.613,0,0,0-2.673-1.794l-.121.18-.711,1.243-.7-1.243a1.61,1.61,0,0,0-2.882,1.417l.1.2L44.947,39.1l-5.257,9.114Z" transform="translate(-12.73 -12.432)" fill="#003c3c"/>
      <path id="Path_116867" data-name="Path 116867" d="M55.83,53.842h2.7L60.078,49.9h8.237l1.523,3.947h2.746l-6.8-16.8h-3.11ZM64.2,39.577l3.2,7.98H61.021Zm22.1,8.495a6.052,6.052,0,0,0-1.566-4.1,5.082,5.082,0,0,0-4.054-1.8,5.266,5.266,0,0,0-2.081.472,3.686,3.686,0,0,0-1.759,1.523v-1.78H74.347v17.1H76.9V52.169a3.708,3.708,0,0,0,1.716,1.394,5.475,5.475,0,0,0,2,.45,5.25,5.25,0,0,0,4.076-1.759A6.013,6.013,0,0,0,86.3,48.072ZM77.8,45.519a3.211,3.211,0,0,1,2.488-1.051,3.135,3.135,0,0,1,2.467,1.051,3.915,3.915,0,0,1,0,5.148,3.19,3.19,0,0,1-2.467,1.03,3.268,3.268,0,0,1-2.488-1.03,3.982,3.982,0,0,1,0-5.148Zm23.1,2.553a6.052,6.052,0,0,0-1.566-4.1,5.081,5.081,0,0,0-4.054-1.8,5.267,5.267,0,0,0-2.081.472,3.686,3.686,0,0,0-1.759,1.523v-1.78H88.949v17.1H91.5V52.169a3.708,3.708,0,0,0,1.716,1.394,5.475,5.475,0,0,0,1.995.45,5.25,5.25,0,0,0,4.076-1.759A6.012,6.012,0,0,0,100.9,48.072ZM92.4,45.519a3.211,3.211,0,0,1,2.488-1.051,3.135,3.135,0,0,1,2.467,1.051,3.915,3.915,0,0,1,0,5.148A3.19,3.19,0,0,1,94.89,51.7a3.268,3.268,0,0,1-2.488-1.03,3.982,3.982,0,0,1,0-5.148Zm22.1,8.516a5.846,5.846,0,0,0,4.162-1.437,4.529,4.529,0,0,0,1.544-3.411,4.024,4.024,0,0,0-1.2-3,10.5,10.5,0,0,0-4.312-2.124c-2.059-.622-3.111-1.309-3.111-2.574,0-1.351,1.18-2.3,2.81-2.3a3.439,3.439,0,0,1,3.389,2.36l2.188-1.18a5.549,5.549,0,0,0-5.513-3.561,5.843,5.843,0,0,0-3.969,1.416,4.326,4.326,0,0,0-1.609,3.411,3.876,3.876,0,0,0,1.287,3.068,11,11,0,0,0,3.947,1.952c2.4.751,3.368,1.459,3.368,2.681,0,1.394-1.223,2.3-2.939,2.3a4.129,4.129,0,0,1-3.99-2.789L108.326,50A6.2,6.2,0,0,0,114.5,54.035Zm14.582-9.353v-2.3h-2.81V38.848h-2.553v3.539h-2.1v2.3h2.1v5.47c0,2.488,1.459,3.818,3.969,3.818a4.005,4.005,0,0,0,1.373-.236V51.568a3.632,3.632,0,0,1-.815.086c-1.309,0-1.974-.536-1.974-1.909V44.683Zm7.771-2.531a5.979,5.979,0,0,0-4.291,1.716,5.932,5.932,0,0,0-.022,8.452,5.979,5.979,0,0,0,4.291,1.716,5.856,5.856,0,0,0,4.269-1.716,5.729,5.729,0,0,0,1.76-4.269,5.588,5.588,0,0,0-1.76-4.2A5.894,5.894,0,0,0,136.857,42.151Zm-2.511,3.368a3.212,3.212,0,0,1,2.489-1.051,3.134,3.134,0,0,1,2.467,1.051,3.688,3.688,0,0,1,.966,2.574,3.773,3.773,0,0,1-.944,2.574,3.137,3.137,0,0,1-2.467,1.051,3.23,3.23,0,0,1-2.489-1.073,3.777,3.777,0,0,1-.965-2.6A3.626,3.626,0,0,1,134.346,45.519Zm17.449-3.175a2.284,2.284,0,0,0-.622-.064,3.4,3.4,0,0,0-3.153,1.931V42.387H145.53V53.842h2.553V48.029c0-2,1.031-3.132,2.982-3.132a3.684,3.684,0,0,1,.729.064Zm12.439,6.521a6.887,6.887,0,0,0,.042-.794,6.137,6.137,0,0,0-1.48-4.29,5.237,5.237,0,0,0-4.1-1.63,5.43,5.43,0,0,0-4.12,1.737,5.9,5.9,0,0,0-1.651,4.2,5.826,5.826,0,0,0,1.716,4.269,5.888,5.888,0,0,0,4.291,1.695,5.434,5.434,0,0,0,4.891-2.767l-1.845-1.223a3.233,3.233,0,0,1-3.091,1.78,3.5,3.5,0,0,1-2.316-.837,2.821,2.821,0,0,1-1.029-2.145ZM158.7,44.339a2.754,2.754,0,0,1,2.98,2.6h-6.005A2.962,2.962,0,0,1,158.7,44.339Z" transform="translate(7.156 -5.574)" fill="#003c3c"/>
      <path id="Path_116868" data-name="Path 116868" d="M56.55,35.578h2.608a4.669,4.669,0,0,0,3.291-1.231,4.4,4.4,0,0,0,.034-6.279,4.561,4.561,0,0,0-3.324-1.254H56.55Zm.918-7.9h1.645a3.677,3.677,0,0,1,2.7,1,3.636,3.636,0,0,1-.011,5.059,3.67,3.67,0,0,1-2.675.985H57.467Zm16.325,3.492a4.322,4.322,0,0,0-1.265-3.156A4.179,4.179,0,0,0,69.4,26.725a4.228,4.228,0,0,0-3.156,1.3,4.425,4.425,0,0,0-1.265,3.2,4.356,4.356,0,0,0,1.253,3.167,4.486,4.486,0,0,0,6.29-.022A4.425,4.425,0,0,0,73.792,31.169Zm-.951.056a3.607,3.607,0,0,1-.974,2.54A3.221,3.221,0,0,1,69.4,34.806a3.266,3.266,0,0,1-2.485-1.063,3.629,3.629,0,0,1-.985-2.574,3.561,3.561,0,0,1,.974-2.529,3.192,3.192,0,0,1,2.462-1.052,3.266,3.266,0,0,1,2.485,1.063A3.629,3.629,0,0,1,72.841,31.225Zm1.864-4.41,2.742,8.763h1.007l2.35-7.521,2.339,7.521h1.03l2.753-8.763H86l-2.306,7.476H83.67l-2.328-7.476H80.3l-2.317,7.432h-.022l-2.294-7.432Zm20.89,0h-.907v7.32l-5.171-7.32H88.454v8.763h.907V28.113l5.249,7.465h.985Zm3.363,0h-.918v8.763h5.07v-.862H98.957Zm13.232,4.354a4.322,4.322,0,0,0-1.265-3.156,4.179,4.179,0,0,0-3.123-1.287,4.228,4.228,0,0,0-3.156,1.3,4.425,4.425,0,0,0-1.265,3.2,4.356,4.356,0,0,0,1.254,3.167,4.486,4.486,0,0,0,6.29-.022A4.425,4.425,0,0,0,112.189,31.169Zm-.951.056a3.607,3.607,0,0,1-.974,2.54,3.221,3.221,0,0,1-2.462,1.041,3.266,3.266,0,0,1-2.485-1.063,3.629,3.629,0,0,1-.985-2.574,3.561,3.561,0,0,1,.974-2.529,3.192,3.192,0,0,1,2.462-1.052,3.266,3.266,0,0,1,2.485,1.063A3.629,3.629,0,0,1,111.237,31.225Zm3.487,2.115H119.5l.951,2.238h.974l-3.783-8.763H116.6l-3.783,8.763h.94Zm.347-.84,2.037-4.734,2.037,4.734Zm7.615,3.078h2.608a4.67,4.67,0,0,0,3.291-1.231,4.405,4.405,0,0,0,.034-6.279,4.561,4.561,0,0,0-3.324-1.254h-2.608Zm.918-7.9h1.645a3.678,3.678,0,0,1,2.7,1,3.636,3.636,0,0,1-.011,5.059,3.67,3.67,0,0,1-2.675.985H123.6Zm19.451,3.492a4.322,4.322,0,0,0-1.265-3.156,4.179,4.179,0,0,0-3.123-1.287,4.229,4.229,0,0,0-3.157,1.3,4.426,4.426,0,0,0-1.265,3.2,4.351,4.351,0,0,0,1.255,3.167,4.486,4.486,0,0,0,6.29-.022A4.426,4.426,0,0,0,143.055,31.169Zm-.951.056a3.607,3.607,0,0,1-.975,2.54,3.222,3.222,0,0,1-2.462,1.041,3.268,3.268,0,0,1-2.485-1.063,3.633,3.633,0,0,1-.985-2.574,3.561,3.561,0,0,1,.975-2.529,3.193,3.193,0,0,1,2.462-1.052,3.268,3.268,0,0,1,2.485,1.063A3.633,3.633,0,0,1,142.1,31.225Zm9.909-4.41h-.905v7.32l-5.171-7.32h-1.063v8.763h.905V28.113l5.249,7.465h.985Z" transform="translate(7.658 -12.586)" fill="#003c3c"/>
    </g>
  </g>
</svg>
